<?xml version="1.0" encoding="UTF-8"?>
<svg version="1.1" xmlns="http://www.w3.org/2000/svg" width="727" height="179">
<path d="M0 0 C239.91 0 479.82 0 727 0 C727 59.07 727 118.14 727 179 C487.09 179 247.18 179 0 179 C0 119.93 0 60.86 0 0 Z " fill="#FEFEFE" transform="translate(0,0)"/>
<path d="M0 0 C1.18172791 -0.00960754 2.36345581 -0.01921509 3.58099365 -0.02911377 C5.50591644 -0.03548859 5.50591644 -0.03548859 7.46972656 -0.04199219 C8.78442932 -0.04769226 10.09913208 -0.05339233 11.45367432 -0.05926514 C14.24125556 -0.06977665 17.02880797 -0.07561772 19.81640625 -0.07910156 C23.3784731 -0.08457418 26.94015534 -0.10857456 30.5021019 -0.13707352 C33.90796915 -0.16025076 37.31378456 -0.16215354 40.71972656 -0.16699219 C41.9949115 -0.17933899 43.27009644 -0.19168579 44.58392334 -0.20440674 C46.37542816 -0.19990509 46.37542816 -0.19990509 48.203125 -0.1953125 C49.24966248 -0.19895813 50.29619995 -0.20260376 51.37445068 -0.20635986 C54.93252511 0.23155363 57.30591491 1.30493067 60.36035156 3.16113281 C62.82848322 6.86333029 62.60282351 8.69292032 62.58740234 13.11108398 C62.58764341 13.82512296 62.58788448 14.53916193 62.58813286 15.27483845 C62.58664082 17.58471985 62.57141338 19.89427795 62.55566406 22.20410156 C62.55272328 23.63073572 62.55068306 25.05737204 62.54956055 26.48400879 C62.53907728 31.77224972 62.51115484 37.06044444 62.48535156 42.34863281 C62.44410156 54.16675781 62.40285156 65.98488281 62.36035156 78.16113281 C37.61035156 78.16113281 12.86035156 78.16113281 -12.63964844 78.16113281 C-12.74277344 66.38425781 -12.84589844 54.60738281 -12.95214844 42.47363281 C-12.99766846 38.76024658 -13.04318848 35.04686035 -13.09008789 31.22094727 C-13.1126709 26.67321777 -13.1126709 26.67321777 -13.11686707 24.54167175 C-13.12452626 23.05848179 -13.14207361 21.57532226 -13.16752625 20.09233093 C-13.20423175 17.84038549 -13.20917569 15.59033536 -13.20727539 13.33813477 C-13.21837845 12.07016556 -13.22948151 10.80219635 -13.24092102 9.49580383 C-12.48018236 5.27673043 -10.91180952 3.83233626 -7.63964844 1.16113281 C-4.98877564 -0.16430358 -2.96862968 0.01942753 0 0 Z " fill="#4B5A6E" transform="translate(56.6396484375,22.8388671875)"/>
<path d="M0 0 C0.8103923 -0.0087616 1.62078461 -0.01752319 2.45573425 -0.02655029 C5.12736998 -0.04850799 7.79734238 -0.03400394 10.46899414 -0.01708984 C12.33077816 -0.02045937 14.19256004 -0.02531313 16.05433655 -0.03158569 C19.95408089 -0.03895236 23.85325206 -0.0282595 27.75292969 -0.00488281 C32.74448573 0.02358517 37.73469642 0.00721246 42.72620296 -0.02274513 C46.57050147 -0.04084069 50.41448274 -0.03504942 54.25879097 -0.02210617 C56.09874189 -0.01877736 57.93872187 -0.02284074 59.77863884 -0.03450394 C62.35450001 -0.04724798 64.9282051 -0.02778724 67.50390625 0 C68.25994141 -0.01012115 69.01597656 -0.02024231 69.79492188 -0.03067017 C75.56630463 0.08429189 77.9551952 1.63359113 81.81665039 5.64697266 C83.08693694 9.23366408 83.160589 10.82534154 81.69165039 14.33447266 C78.93735318 17.73143922 76.34266311 19.46541293 71.95410156 19.98754883 C70.93292236 19.97183838 69.91174316 19.95612793 68.85961914 19.93994141 C67.74780273 19.93027344 66.63598633 19.92060547 65.49047852 19.91064453 C64.33999023 19.88550781 63.18950195 19.86037109 62.00415039 19.83447266 C60.83432617 19.8209375 59.66450195 19.80740234 58.45922852 19.79345703 C55.57817135 19.75817878 52.69735169 19.70437408 49.81665039 19.64697266 C50.31165039 25.58697266 50.31165039 25.58697266 50.81665039 31.64697266 C52.10442383 32.06849609 53.39219727 32.49001953 54.71899414 32.92431641 C56.39743147 33.47754435 58.07581408 34.03093834 59.75415039 34.58447266 C60.60428711 34.86226562 61.45442383 35.14005859 62.33032227 35.42626953 C63.54365234 35.82749023 63.54365234 35.82749023 64.78149414 36.23681641 C65.53035889 36.48294678 66.27922363 36.72907715 67.05078125 36.98266602 C68.81665039 37.64697266 68.81665039 37.64697266 69.81665039 38.64697266 C69.88845003 40.16625303 69.90057046 41.68864747 69.87915039 43.20947266 C69.87012695 44.03576172 69.86110352 44.86205078 69.85180664 45.71337891 C69.84020508 46.35146484 69.82860352 46.98955078 69.81665039 47.64697266 C70.60040039 47.91509766 71.38415039 48.18322266 72.19165039 48.45947266 C74.81665039 49.64697266 74.81665039 49.64697266 76.81665039 52.64697266 C77.55630064 57.23968469 77.42626233 60.67159355 74.94165039 64.64697266 C71.66825026 67.72781984 69.35538565 67.98084752 64.85571289 67.93994141 C61.68530472 67.48442299 59.99741019 65.89381608 57.81665039 63.64697266 C56.0800661 60.17380408 56.21570185 56.4355613 56.81665039 52.64697266 C59.19165039 49.58447266 59.19165039 49.58447266 61.81665039 47.64697266 C62.47665039 47.64697266 63.13665039 47.64697266 63.81665039 47.64697266 C63.81665039 45.99697266 63.81665039 44.34697266 63.81665039 42.64697266 C62.8865918 42.40914062 62.8865918 42.40914062 61.93774414 42.16650391 C53.7707153 40.01478306 45.80472043 37.3743434 37.81665039 34.64697266 C37.81665039 38.93697266 37.81665039 43.22697266 37.81665039 47.64697266 C39.13665039 48.30697266 40.45665039 48.96697266 41.81665039 49.64697266 C44.60973318 52.24054953 44.82650071 53.7245439 45.31665039 57.58447266 C45.20397687 61.13700249 44.8199225 61.64302934 42.37915039 64.58447266 C41.53352539 65.26509766 40.68790039 65.94572266 39.81665039 66.64697266 C39.48665039 66.97697266 39.15665039 67.30697266 38.81665039 67.64697266 C35.76283483 68.0886402 32.86559398 68.12920353 29.81665039 67.64697266 C26.81665039 65.20947266 26.81665039 65.20947266 24.81665039 62.64697266 C24.48665039 62.31697266 24.15665039 61.98697266 23.81665039 61.64697266 C23.33221617 56.88336948 23.10478324 53.95108246 26.19165039 50.14697266 C28.81665039 47.64697266 28.81665039 47.64697266 30.81665039 47.64697266 C30.81665039 43.35697266 30.81665039 39.06697266 30.81665039 34.64697266 C22.56665039 37.28697266 14.31665039 39.92697266 5.81665039 42.64697266 C5.48665039 44.29697266 5.15665039 45.94697266 4.81665039 47.64697266 C5.60040039 47.91509766 6.38415039 48.18322266 7.19165039 48.45947266 C9.81665039 49.64697266 9.81665039 49.64697266 11.81665039 52.64697266 C12.55630064 57.23968469 12.42626233 60.67159355 9.94165039 64.64697266 C6.66890764 67.72720113 4.35272346 67.98930934 -0.14819336 67.93212891 C-4.12101898 67.3754758 -6.23715488 64.89422934 -8.55834961 61.83447266 C-9.53174031 58.42760522 -9.07995062 56.05405651 -8.18334961 52.64697266 C-5.74584961 49.70947266 -5.74584961 49.70947266 -3.18334961 47.64697266 C-2.52334961 47.64697266 -1.86334961 47.64697266 -1.18334961 47.64697266 C-1.18334961 44.67697266 -1.18334961 41.70697266 -1.18334961 38.64697266 C5.39683951 35.51868602 11.75081651 33.43579136 18.81665039 31.64697266 C18.81665039 27.68697266 18.81665039 23.72697266 18.81665039 19.64697266 C16.07094727 19.68177734 16.07094727 19.68177734 13.26977539 19.71728516 C10.8687378 19.73604326 8.4676958 19.75424342 6.06665039 19.77197266 C4.86008789 19.78873047 3.65352539 19.80548828 2.41040039 19.82275391 C1.25024414 19.82919922 0.09008789 19.83564453 -1.10522461 19.84228516 C-2.17353516 19.85275879 -3.2418457 19.86323242 -4.3425293 19.87402344 C-7.22378009 19.64374128 -8.80238396 19.25049373 -11.18334961 17.64697266 C-13.19806558 14.62489871 -13.52053995 13.72970567 -13.62084961 10.27197266 C-13.66081055 9.52173828 -13.70077148 8.77150391 -13.74194336 7.99853516 C-12.05888671 0.91321977 -6.35037886 -0.08478645 0 0 Z " fill="#4D5C6F" transform="translate(47.183349609375,106.35302734375)"/>
<path d="M0 0 C22 0 22 0 30 5 C31.59435019 8.18870039 31.38632834 11.5297058 31 15 C29.6038245 17.91927604 28.27797004 19.72202996 26 22 C26.99 22.639375 27.98 23.27875 29 23.9375 C31.05050825 25.63898557 31.89290068 26.54088431 32.50390625 29.16015625 C32.62046714 33.814821 32.17318216 37.40372688 29 41 C23.33395193 44.86745058 17.70304968 44.34425234 11.125 44.1875 C7.45375 44.125625 3.7825 44.06375 0 44 C0 29.48 0 14.96 0 0 Z " fill="#546375" transform="translate(546,71)"/>
<path d="M0 0 C1.65 0 3.3 0 5 0 C5.33 5.61 5.66 11.22 6 17 C7.98 15.68 9.96 14.36 12 13 C16.34454358 11.9138641 19.42112015 12.68325442 23.3125 14.8125 C28.74468085 19.23404255 28.74468085 19.23404255 30 23 C30.6609303 30.41108734 30.69324244 36.03831366 26 42 C22.19390606 45.47026212 18.31968452 45.43731988 13.3828125 45.3046875 C10.36557823 44.91887722 8.36524635 43.89219708 6 42 C5.67 42.99 5.34 43.98 5 45 C3.35 45 1.7 45 0 45 C0 30.15 0 15.3 0 0 Z " fill="#546275" transform="translate(231,70)"/>
<path d="M0 0 C1.32 0 2.64 0 4 0 C4 14.85 4 29.7 4 45 C2.68 45 1.36 45 0 45 C-0.33 43.68 -0.66 42.36 -1 41 C-1.78375 41.66 -2.5675 42.32 -3.375 43 C-7.65520594 45.85685955 -12.03392324 45.66547092 -17 45 C-21.08780951 43.48928779 -23.24735668 41.03935977 -25.2734375 37.16015625 C-27.12603818 31.65215529 -26.68414854 25.98042997 -24.8125 20.5625 C-22.401111 17.15329486 -19.73230245 14.86615122 -16 13 C-9.85450978 12.48787582 -6.96894361 13.00060636 -2 17 C-1.67 17.33 -1.34 17.66 -1 18 C-0.67 12.06 -0.34 6.12 0 0 Z " fill="#516073" transform="translate(703,70)"/>
<path d="M0 0 C4.22479336 1.59426164 6.68320481 3.12792357 9 7 C9.34057617 9.74902344 9.34057617 9.74902344 9.29296875 12.859375 C9.28330078 13.97441406 9.27363281 15.08945313 9.26367188 16.23828125 C9.23853516 17.39714844 9.21339844 18.55601563 9.1875 19.75 C9.16719727 21.51150391 9.16719727 21.51150391 9.14648438 23.30859375 C9.1111478 26.20619298 9.06180979 29.10286427 9 32 C7.35 32 5.7 32 4 32 C3.67 31.01 3.34 30.02 3 29 C2.38125 29.495 1.7625 29.99 1.125 30.5 C-3.28381814 32.61623271 -7.19280986 32.82746716 -12 32 C-15.125 29.9375 -15.125 29.9375 -17 27 C-17.6875 23.5 -17.6875 23.5 -17 20 C-12.79473424 14.74341779 -8.20076237 14.15205421 -1.70703125 13.26171875 C1 13 1 13 4 13 C3.39816251 10.97954558 2.72693904 8.97888961 2 7 C-1.09173752 5.45413124 -3.59429552 5.70640479 -7 6 C-8.35308313 7.31328657 -9.68870078 8.64499081 -11 10 C-13.75 9.75 -13.75 9.75 -16 9 C-12.2860316 1.96300725 -8.16208696 -1.32833964 0 0 Z " fill="#546275" transform="translate(639,83)"/>
<path d="M0 0 C4.20111219 1.61581238 6.69287956 3.13290637 9 7 C9.34057617 9.74902344 9.34057617 9.74902344 9.29296875 12.859375 C9.28330078 13.97441406 9.27363281 15.08945313 9.26367188 16.23828125 C9.23853516 17.39714844 9.21339844 18.55601563 9.1875 19.75 C9.16719727 21.51150391 9.16719727 21.51150391 9.14648438 23.30859375 C9.1111478 26.20619298 9.06180979 29.10286427 9 32 C7.35 32 5.7 32 4 32 C3.67 31.01 3.34 30.02 3 29 C2.38125 29.495 1.7625 29.99 1.125 30.5 C-3.28851351 32.61848649 -7.18824616 32.81902193 -12 32 C-15.1875 30 -15.1875 30 -17 27 C-17.36372941 24.08439123 -17.06023794 21.73942559 -16 19 C-11.62043867 14.62043867 -8.41925039 13.8523015 -2.375 13.4375 C-0.59222656 13.31181641 -0.59222656 13.31181641 1.2265625 13.18359375 C2.14179688 13.12300781 3.05703125 13.06242187 4 13 C3.39816251 10.97954558 2.72693904 8.97888961 2 7 C-1.09173752 5.45413124 -3.59429552 5.70640479 -7 6 C-8.37195574 7.29355827 -9.71182656 8.62298702 -11 10 C-13.25 9.75 -13.25 9.75 -15 9 C-14.03714243 5.53371274 -13.07650505 4.06582992 -10.3125 1.6875 C-6.43108506 -0.28982459 -4.30380826 -0.53797603 0 0 Z " fill="#536274" transform="translate(408,83)"/>
<path d="M0 0 C4.20111219 1.61581238 6.69287956 3.13290637 9 7 C9.34057617 9.74902344 9.34057617 9.74902344 9.29296875 12.859375 C9.28330078 13.97441406 9.27363281 15.08945313 9.26367188 16.23828125 C9.23853516 17.39714844 9.21339844 18.55601563 9.1875 19.75 C9.16719727 21.51150391 9.16719727 21.51150391 9.14648438 23.30859375 C9.1111478 26.20619298 9.06180979 29.10286427 9 32 C7.35 32 5.7 32 4 32 C3.67 31.01 3.34 30.02 3 29 C2.38125 29.495 1.7625 29.99 1.125 30.5 C-3.28851351 32.61848649 -7.18824616 32.81902193 -12 32 C-15.1875 30 -15.1875 30 -17 27 C-17.36372941 24.08439123 -17.06023794 21.73942559 -16 19 C-11.62043867 14.62043867 -8.41925039 13.8523015 -2.375 13.4375 C-0.59222656 13.31181641 -0.59222656 13.31181641 1.2265625 13.18359375 C2.14179688 13.12300781 3.05703125 13.06242187 4 13 C3.39816251 10.97954558 2.72693904 8.97888961 2 7 C-1.09173752 5.45413124 -3.59429552 5.70640479 -7 6 C-8.37195574 7.29355827 -9.71182656 8.62298702 -11 10 C-13.25 9.75 -13.25 9.75 -15 9 C-14.03714243 5.53371274 -13.07650505 4.06582992 -10.3125 1.6875 C-6.43108506 -0.28982459 -4.30380826 -0.53797603 0 0 Z " fill="#536274" transform="translate(340,83)"/>
<path d="M0 0 C4.47870656 2.15937638 7.18198188 4.92952939 10 9 C11.64480616 13.93441849 11.5902043 18.26410499 9.9375 23.125 C7.13791431 27.27922393 3.51223683 30.74388159 -1 33 C-1.39138678 35.06102235 -1.39138678 35.06102235 -1.5 37.4375 C-1.7787307 41.7787307 -1.7787307 41.7787307 -4 44 C-7.53571429 43.46428571 -7.53571429 43.46428571 -9 42 C-9.04298417 37.3577098 -8.7144657 33.23657524 -6.375 29.1875 C-4.36436368 27.33559813 -2.61473247 26.15403089 -0.3125 24.75 C1.91619078 23.23218473 2.84733883 22.40220346 3.8125 19.859375 C4.4732264 15.70230475 4.40330604 13.66754103 2.1875 10 C-1.25372959 6.85373294 -3.39436854 6.88450703 -8.02734375 6.8671875 C-10.21324535 6.93120067 -10.21324535 6.93120067 -13 8 C-14.02700444 10.32891096 -14.02700444 10.32891096 -14.6875 13.0625 C-14.93886719 13.98160156 -15.19023438 14.90070312 -15.44921875 15.84765625 C-15.63097656 16.55792969 -15.81273438 17.26820312 -16 18 C-17.65614657 18.38218767 -19.32457024 18.71395102 -21 19 C-22 18 -22 18 -22.3125 14.8125 C-21.84131767 9.06407557 -19.18575426 6.3636174 -15.5 2.125 C-11.03694954 -1.39306784 -5.34974796 -0.79364393 0 0 Z " fill="#F5F6F7" transform="translate(87,36)"/>
<path d="M0 0 C1.65 0 3.3 0 5 0 C8.39932049 7.74652842 11.39900533 15.6228389 14.3125 23.5625 C14.67408203 24.53848145 15.03566406 25.51446289 15.40820312 26.52001953 C15.9119043 27.90423096 15.9119043 27.90423096 16.42578125 29.31640625 C16.88078003 30.56079468 16.88078003 30.56079468 17.3449707 31.83032227 C18 34 18 34 18 37 C18.66 37 19.32 37 20 37 C20.11408203 36.32420898 20.22816406 35.64841797 20.34570312 34.95214844 C21.12131511 31.45263348 22.26329966 28.13396721 23.46875 24.765625 C23.70911987 24.08699402 23.94948975 23.40836304 24.19714355 22.70916748 C24.70316349 21.28321957 25.21088493 19.85787445 25.72021484 18.43310547 C26.50184671 16.24482991 27.27666996 14.05422701 28.05078125 11.86328125 C28.54386817 10.47641927 29.03734401 9.08969549 29.53125 7.703125 C29.76356323 7.0458844 29.99587646 6.3886438 30.23522949 5.71148682 C31.88480248 1.11519752 31.88480248 1.11519752 33 0 C34.66617115 -0.04063832 36.33388095 -0.042721 38 0 C35.45980667 9.45688208 31.84064446 18.50595744 28.3125 27.625 C27.69953356 29.21731853 27.08690065 30.80976548 26.47460938 32.40234375 C24.98691368 36.26972049 23.4947164 40.1353316 22 44 C20.02 44 18.04 44 16 44 C11.65872333 33.35463539 7.4429264 22.67511191 3.5 11.875 C3.15001953 10.92157715 2.80003906 9.9681543 2.43945312 8.98583984 C2.11912109 8.10105957 1.79878906 7.2162793 1.46875 6.3046875 C1.04239258 5.1288208 1.04239258 5.1288208 0.60742188 3.92919922 C0 2 0 2 0 0 Z " fill="#536174" transform="translate(284,71)"/>
<path d="M0 0 C3.8739684 1.73660653 5.4014405 3.18196868 7.875 6.5625 C9.47047514 11.43756294 9.69546908 15.92005194 9 21 C7.1875 24.5 7.1875 24.5 5 27 C4.484375 27.598125 3.96875 28.19625 3.4375 28.8125 C-0.17862849 31.79973658 -4.83602013 31.33197863 -9.2734375 31.2734375 C-13.18928893 30.88073034 -15.16210937 29.69945694 -18 27 C-21.67705217 22.16177346 -22.65385852 18.43380221 -22.38671875 12.36328125 C-21.62273916 7.69451711 -19.07944482 5.02678898 -15.7578125 1.8671875 C-10.91108978 -1.41430465 -5.6341274 -0.69452137 0 0 Z M-16 9 C-17.60632723 12.21265446 -17.47931944 15.51521812 -17 19 C-14.98497111 22.75212276 -13.54533858 24.63644095 -10 27 C-5.03504727 27.45971784 -1.93832304 27.15065843 2 24 C4.73323826 19.57886723 4.67781433 15.04685849 4 10 C1.89495409 6.44319828 0.91593192 5.30531064 -3 4 C-9.39843452 3.38079666 -11.82406961 3.6851795 -16 9 Z " fill="#526073" transform="translate(214,84)"/>
<path d="M0 0 C1.010625 -0.00773437 2.02125 -0.01546875 3.0625 -0.0234375 C7.67459627 0.60213939 10.22037932 2.48709868 13.25 5.9375 C16.63373151 10.6505546 16.48081075 14.6926912 16 20.375 C14.11130184 25.74287898 11.08016831 28.83491584 6 31.375 C1.17110257 31.77935212 -3.40690481 32.0190172 -7.9375 30.1875 C-11.88320592 26.72006146 -14.66673711 23.50002247 -15.23828125 18.140625 C-15.42135504 11.93538711 -14.77166497 8.36990766 -11 3.375 C-7.26949325 0.63330227 -4.60313416 -0.03522807 0 0 Z M-7.5 6.1875 C-10.3325069 10.31823923 -10.51476518 14.51230754 -10 19.375 C-8.81462302 22.57551784 -7.94299185 24.63407783 -5.25 26.75 C-1.92755785 27.6729006 0.56007996 27.79016276 4 27.375 C6.97239241 25.59023759 9.42604027 23.52291945 11 20.375 C11.58407714 15.58748247 11.42957129 12.20451697 9.1875 7.875 C6.79410272 5.13968882 5.44361879 4.53717449 1.87890625 4.13671875 C-3.14363003 3.92014287 -3.14363003 3.92014287 -7.5 6.1875 Z " fill="#505F72" transform="translate(600,83.625)"/>
<path d="M0 0 C3.46555531 2.68757351 4.664056 4.14630903 5.4375 8.4140625 C5.70968022 14.04479076 4.87863493 17.6780925 1 22 C-2.63782632 23.21260877 -5.17735999 23.39544552 -9 23 C-12.26116881 20.30599098 -14.77242054 18.10790807 -15.23828125 13.79296875 C-15.43980708 6.71835156 -15.43980708 6.71835156 -13.125 2.9375 C-9.17355604 -0.66528714 -5.1728113 -0.90078266 0 0 Z " fill="#FBFBFC" transform="translate(251,88)"/>
<path d="M0 0 C3.86692123 0.13118796 6.8111082 0.73211185 9.71484375 3.546875 C12.05497867 7.82093274 11.52432713 12.77217907 10.75 17.4375 C8.94196596 20.51115786 7.88960536 21.86769732 4.75 23.4375 C-2.38230769 24.13903846 -2.38230769 24.13903846 -6.1875 21.0625 C-9.44564923 16.91576462 -9.80905478 13.62321502 -9.25 8.4375 C-7.1793453 3.35498391 -5.74037649 0.16596327 0 0 Z " fill="#FBFBFC" transform="translate(691.25,87.5625)"/>
<path d="M0 0 C3.32801073 2.68089753 5.06401076 5.29938753 5.59057617 9.58325195 C5.57486572 10.56253662 5.55915527 11.54182129 5.54296875 12.55078125 C5.53330078 13.61748047 5.52363281 14.68417969 5.51367188 15.78320312 C5.48853516 16.88599609 5.46339844 17.98878906 5.4375 19.125 C5.41719727 20.80819336 5.41719727 20.80819336 5.39648438 22.52539062 C5.3612138 25.28825229 5.31192235 28.05012829 5.25 30.8125 C3.6 30.8125 1.95 30.8125 0.25 30.8125 C0.23541748 30.13147217 0.22083496 29.45044434 0.20581055 28.7487793 C0.13137304 25.66527785 0.03469917 22.58286433 -0.0625 19.5 C-0.08505859 18.42814453 -0.10761719 17.35628906 -0.13085938 16.25195312 C-0.1840332 14.70991211 -0.1840332 14.70991211 -0.23828125 13.13671875 C-0.26446533 12.18885498 -0.29064941 11.24099121 -0.31762695 10.2644043 C-0.81694421 7.43287229 -1.47836191 6.51980582 -3.75 4.8125 C-5.69204967 4.3044618 -5.69204967 4.3044618 -7.75 4.375 C-8.7709375 4.34599609 -8.7709375 4.34599609 -9.8125 4.31640625 C-12.61270856 5.03339514 -13.25641962 6.38384888 -14.75 8.8125 C-15.24857326 11.31609737 -15.24857326 11.31609737 -15.26171875 14.015625 C-15.29716797 14.9953125 -15.33261719 15.975 -15.36914062 16.984375 C-15.39169922 18.00015625 -15.41425781 19.0159375 -15.4375 20.0625 C-15.47166016 21.09375 -15.50582031 22.125 -15.54101562 23.1875 C-15.62338093 25.72905812 -15.69256834 28.27027626 -15.75 30.8125 C-17.4 30.8125 -19.05 30.8125 -20.75 30.8125 C-20.75 20.5825 -20.75 10.3525 -20.75 -0.1875 C-19.43 -0.1875 -18.11 -0.1875 -16.75 -0.1875 C-16.42 0.8025 -16.09 1.7925 -15.75 2.8125 C-15.316875 2.338125 -14.88375 1.86375 -14.4375 1.375 C-10.4400152 -2.32637481 -4.76580081 -2.05795944 0 0 Z " fill="#556376" transform="translate(446.75,84.1875)"/>
<path d="M0 0 C1.27617187 0.02320313 2.55234375 0.04640625 3.8671875 0.0703125 C5.78917969 0.09738281 5.78917969 0.09738281 7.75 0.125 C9.23113281 0.15980469 9.23113281 0.15980469 10.7421875 0.1953125 C11.3671875 2.5703125 11.3671875 2.5703125 11.7421875 5.1953125 C9.7421875 7.1953125 9.7421875 7.1953125 7.578125 7.390625 C6.35996094 7.35582031 6.35996094 7.35582031 5.1171875 7.3203125 C4.29992187 7.30226563 3.48265625 7.28421875 2.640625 7.265625 C2.01414063 7.24242187 1.38765625 7.21921875 0.7421875 7.1953125 C0.66178223 8.1018457 0.58137695 9.00837891 0.49853516 9.94238281 C0.19277709 13.36460504 -0.11712978 16.78640241 -0.4296875 20.20800781 C-0.56314035 21.67791399 -0.69502475 23.14796358 -0.82519531 24.61816406 C-1.61759499 33.55399429 -2.60858297 42.36695928 -4.2578125 51.1953125 C-6.73095703 49.94726562 -6.73095703 49.94726562 -9.2578125 48.1953125 C-9.81201172 46.36523438 -9.81201172 46.36523438 -9.6875 44.1640625 C-9.64206055 43.2771875 -9.59662109 42.3903125 -9.54980469 41.4765625 C-9.45344727 40.39375 -9.35708984 39.3109375 -9.2578125 38.1953125 C-9.20113403 37.53724609 -9.14445557 36.87917969 -9.08605957 36.20117188 C-8.67320375 31.51667331 -8.18362967 26.84308455 -7.65869141 22.16992188 C-7.38045869 19.67419905 -7.11761397 17.17714549 -6.85546875 14.6796875 C-6.68061237 13.09104376 -6.50486401 11.50249789 -6.328125 9.9140625 C-6.25095245 9.16829956 -6.17377991 8.42253662 -6.0942688 7.6541748 C-5.24191207 0.31426331 -5.24191207 0.31426331 0 0 Z " fill="#546275" transform="translate(135.2578125,53.8046875)"/>
<path d="M0 0 C2.29141286 -0.05384521 4.58318188 -0.09272087 6.875 -0.125 C8.78925781 -0.15980469 8.78925781 -0.15980469 10.7421875 -0.1953125 C14 0 14 0 16 2 C16.45576009 4.42185743 16.79926513 6.76733736 17.0703125 9.2109375 C17.15626678 9.93431305 17.24222107 10.6576886 17.33078003 11.40298462 C17.51135986 12.94085571 17.68759959 14.4792416 17.85986328 16.01806641 C18.12022782 18.3325777 18.39683433 20.64469508 18.67578125 22.95703125 C19.45703333 29.59007075 20.14613298 36.23947072 20.4296875 42.9140625 C20.47077637 43.83396973 20.51186523 44.75387695 20.55419922 45.70166016 C20 48 20 48 17.47314453 49.81787109 C16.65700684 50.20797363 15.84086914 50.59807617 15 51 C14.91959473 50.38181396 14.83918945 49.76362793 14.75634766 49.12670898 C14.51585084 47.27838289 14.2751955 45.43007742 14.03442383 43.58178711 C13.76038007 41.47718986 13.48678332 39.37253436 13.21362305 37.26782227 C12.6096455 32.62423144 12.00338118 27.98143894 11.35546875 23.34375 C11.08669922 21.41015625 11.08669922 21.41015625 10.8125 19.4375 C10.65394531 18.32246094 10.49539062 17.20742187 10.33203125 16.05859375 C10.00137616 13.01267688 9.94015795 10.06115096 10 7 C9.06027344 7.03480469 9.06027344 7.03480469 8.1015625 7.0703125 C6.87566406 7.09738281 6.87566406 7.09738281 5.625 7.125 C4.81289063 7.14820313 4.00078125 7.17140625 3.1640625 7.1953125 C1 7 1 7 -1 5 C-0.625 2.375 -0.625 2.375 0 0 Z " fill="#536174" transform="translate(17,54)"/>
<path d="M0 0 C1.65 0 3.3 0 5 0 C14 17 14 17 14 23 C14.66 23 15.32 23 16 23 C16.15855469 22.42894531 16.31710937 21.85789062 16.48046875 21.26953125 C18.56953464 14.00973874 21.21646302 7.01935413 24 0 C25.65 0 27.3 0 29 0 C27.8777525 7.35858049 24.53515656 14.26037099 21.79052734 21.13037109 C21.09535295 22.88054033 20.40885008 24.63417822 19.73095703 26.39111328 C18.75110934 28.93017622 17.74594551 31.45781059 16.734375 33.984375 C16.43521179 34.77285828 16.13604858 35.56134155 15.82781982 36.37371826 C14.92871094 38.56933594 14.92871094 38.56933594 13 42 C10.26660156 43.00097656 10.26660156 43.00097656 8 43 C8.45591509 40.3404953 8.9392806 38.1248121 10.125 35.6875 C12.72927836 27.68864505 7.96599776 19.27339351 4.9375 12 C4.46505859 10.84371094 3.99261719 9.68742187 3.50585938 8.49609375 C2.34580685 5.6604098 1.177021 2.82867294 0 0 Z " fill="#546275" transform="translate(492,84)"/>
<path d="M0 0 C3.45098662 1.85330763 6.50428651 3.94968352 9 7 C9 7.66 9 8.32 9 9 C6.75 9.75 6.75 9.75 4 10 C3.4225 9.360625 2.845 8.72125 2.25 8.0625 C-0.77742243 5.28736277 -2.88082341 5.4307589 -6.875 5.6015625 C-9.93145998 6.17464875 -11.23616845 7.50123864 -13 10 C-14.59435019 13.18870039 -14.38632834 16.5297058 -14 20 C-12.6038245 22.91927604 -11.27797004 24.72202996 -9 27 C-2.65892797 27.49736306 -2.65892797 27.49736306 3 25 C3.33 24.34 3.66 23.68 4 23 C5.65 23.33 7.3 23.66 9 24 C6.91682406 28.05671104 5.28747299 30.30287527 1 32 C-3.81066448 32.52888329 -8.27688284 32.5993451 -12.875 31 C-17.51079257 26.63690111 -20.28877293 22.35646596 -20.5625 15.875 C-20.30731712 11.25335442 -19.10644351 8.52623318 -16 5 C-10.68387692 0.31674872 -7.01736974 -0.87421778 0 0 Z " fill="#546275" transform="translate(376,83)"/>
<path d="M0 0 C3.45098662 1.85330763 6.50428651 3.94968352 9 7 C9 7.66 9 8.32 9 9 C7.3125 9.75 7.3125 9.75 5 10 C4.278125 9.360625 3.55625 8.72125 2.8125 8.0625 C-0.62937254 5.53846014 -2.72431801 5.33333635 -6.90625 5.5703125 C-9.22160749 5.89945408 -9.22160749 5.89945408 -11.5625 7.8125 C-13.70284671 12.55848619 -13.87423463 16.88496053 -13 22 C-11.16348401 25.33821811 -11.16348401 25.33821811 -8 27 C-2.18782195 27.95108368 0.31738032 26.22580467 5 23 C7.375 23.25 7.375 23.25 9 24 C7.70989008 26.87793751 6.42638194 28.96183917 4 31 C-1.83348947 32.94449649 -7.9175878 32.96683423 -13.5 30.375 C-18.14351481 25.96366093 -19.19605754 22.29308089 -19.4375 16 C-19.2912735 10.86299935 -18.64517039 7.83702146 -15 4 C-10.29075016 -0.16166265 -6.07934554 -1.10038333 0 0 Z " fill="#546275" transform="translate(479,83)"/>
<path d="M0 0 C2.7302389 -0.1083667 5.45614543 -0.18746694 8.1875 -0.25 C8.95642578 -0.28351563 9.72535156 -0.31703125 10.51757812 -0.3515625 C14.48741 -0.41971412 16.52540092 -0.2827922 20.015625 1.796875 C22 4 22 4 22.5625 7.5 C22 11 22 11 20.54296875 13.203125 C16.73272843 15.89546071 13.29129264 15.43449001 8.75 15.25 C7.90953125 15.23195313 7.0690625 15.21390625 6.203125 15.1953125 C4.13492605 15.14830798 2.06731559 15.07656724 0 15 C0 10.05 0 5.1 0 0 Z " fill="#FDFDFE" transform="translate(551,95)"/>
<path d="M0 0 C1.65 0 3.3 0 5 0 C5.07432418 5.03536777 5.12868401 10.07041408 5.16479492 15.10620117 C5.1798534 16.81817184 5.20030455 18.53010411 5.22631836 20.24194336 C5.2628319 22.70696505 5.27975562 25.17147535 5.29296875 27.63671875 C5.30845261 28.39836838 5.32393646 29.16001801 5.33988953 29.94474792 C5.34132374 34.50429699 4.78672352 37.36024126 2 41 C-0.90209915 43.7512624 -2.96015003 44.45097257 -6.9375 44.5 C-10.81449509 44.38563436 -11.81088333 44.13894286 -15.0625 41.75 C-16.75959041 39.34122652 -17.67900526 37.88895266 -18 35 C-13.30731707 35.63414634 -13.30731707 35.63414634 -11.6875 37.5625 C-8.83405446 39.99321286 -5.6341192 39.17872717 -2 39 C-0.75526468 35.26579403 -0.76790215 31.72634762 -0.68359375 27.83203125 C-0.66281265 27.03721848 -0.64203156 26.2424057 -0.62062073 25.42350769 C-0.55527913 22.88659237 -0.49631192 20.34957427 -0.4375 17.8125 C-0.39430014 16.09178628 -0.35068537 14.37108292 -0.30664062 12.65039062 C-0.19961352 8.43369887 -0.09830276 4.2169038 0 0 Z " fill="#505E72" transform="translate(179,71)"/>
<path d="M0 0 C2.75059381 -0.08107646 5.49879021 -0.14052813 8.25 -0.1875 C9.02730469 -0.21263672 9.80460938 -0.23777344 10.60546875 -0.26367188 C14.07793528 -0.30819068 16.38935846 -0.31480278 19.515625 1.296875 C21 3 21 3 21.5 6.4375 C21 10 21 10 19.515625 12.20703125 C15.82925808 14.83442631 12.65526089 14.43994491 8.25 14.25 C7.06083984 14.22292969 7.06083984 14.22292969 5.84765625 14.1953125 C3.89791652 14.14833082 1.94880122 14.07659044 0 14 C0 9.38 0 4.76 0 0 Z " fill="#FDFDFE" transform="translate(551,76)"/>
<path d="M0 0 C1.32 0 2.64 0 4 0 C4.33 0.99 4.66 1.98 5 3 C5.515625 2.505 6.03125 2.01 6.5625 1.5 C9.80680017 -0.49649241 12.26217334 -0.21564385 16 0 C16 1.32 16 2.64 16 4 C15.04287109 4.16435547 15.04287109 4.16435547 14.06640625 4.33203125 C13.24011719 4.49058594 12.41382813 4.64914063 11.5625 4.8125 C10.73878906 4.96332031 9.91507813 5.11414063 9.06640625 5.26953125 C8.38449219 5.51058594 7.70257812 5.75164062 7 6 C6.0268319 8.9195043 5.8070454 11.05444951 5.68359375 14.10546875 C5.64169922 15.08837891 5.59980469 16.07128906 5.55664062 17.08398438 C5.51732422 18.10814453 5.47800781 19.13230469 5.4375 20.1875 C5.37272461 21.74114258 5.37272461 21.74114258 5.30664062 23.32617188 C5.20055634 25.8839819 5.09849854 28.44188845 5 31 C3.35 31 1.7 31 0 31 C0 20.77 0 10.54 0 0 Z " fill="#526174" transform="translate(657,84)"/>
<path d="M0 0 C-0.23071677 3.9990906 -0.43643125 6.33396421 -3.0625 9.4375 C-7.08311221 11.57612352 -9.47882072 11.44470616 -14 11 C-16 9 -16 9 -16.375 6.5625 C-16 4 -16 4 -14.4375 2.25 C-9.9081721 -0.07273225 -5.01280807 -0.15190327 0 0 Z " fill="#F6F7F8" transform="translate(643,100)"/>
<path d="M0 0 C-0.23316485 4.04152406 -0.4228959 6.33802764 -3.125 9.4375 C-6.70378189 11.38249016 -8.97964268 11.44670637 -13 11 C-13.99 10.34 -14.98 9.68 -16 9 C-16.4375 6.5625 -16.4375 6.5625 -16 4 C-11.98507234 -0.49671897 -5.63871436 -0.17087013 0 0 Z " fill="#F6F7F8" transform="translate(412,100)"/>
<path d="M0 0 C-0.23316485 4.04152406 -0.4228959 6.33802764 -3.125 9.4375 C-6.70378189 11.38249016 -8.97964268 11.44670637 -13 11 C-13.99 10.34 -14.98 9.68 -16 9 C-16.4375 6.5625 -16.4375 6.5625 -16 4 C-11.98507234 -0.49671897 -5.63871436 -0.17087013 0 0 Z " fill="#F6F7F8" transform="translate(344,100)"/>
<path d="M0 0 C2.00720923 0.28674418 4.0085944 0.61866701 6 1 C6.625 3.875 6.625 3.875 7 7 C5 9 5 9 2.5 9.25 C0 9 0 9 -2 7 C-1.43181818 1.43181818 -1.43181818 1.43181818 0 0 Z " fill="#EFF0F2" transform="translate(79,159)"/>
<path d="M0 0 C4.55555556 0.55555556 4.55555556 0.55555556 6 2 C6.04080783 3.99958364 6.04254356 6.00045254 6 8 C3.6739143 8.38063221 1.33944736 8.71269945 -1 9 C-2 8 -2 8 -2.1875 5.0625 C-2 2 -2 2 0 0 Z " fill="#F5F6F7" transform="translate(47,159)"/>
<path d="M0 0 C4.55555556 0.55555556 4.55555556 0.55555556 6 2 C6.1875 4.4375 6.1875 4.4375 6 7 C5.34 7.66 4.68 8.32 4 9 C-0.55555556 8.44444444 -0.55555556 8.44444444 -2 7 C-2.1875 4.5625 -2.1875 4.5625 -2 2 C-1.34 1.34 -0.68 0.68 0 0 Z " fill="#F7F8F8" transform="translate(112,159)"/>
<path d="M0 0 C1.2065625 0.0309375 1.2065625 0.0309375 2.4375 0.0625 C2.4375 2.7025 2.4375 5.3425 2.4375 8.0625 C0.77138095 8.105221 -0.89632885 8.10313832 -2.5625 8.0625 C-3.5625 7.0625 -3.5625 7.0625 -3.6875 4.0625 C-3.52180824 0.08589776 -3.52180824 0.08589776 0 0 Z " fill="#EEEFF1" transform="translate(81.5625,85.9375)"/>
</svg>
